<?xml version="1.0" standalone="no"?><!DOCTYPE svg PUBLIC "-//W3C//DTD SVG 1.1//EN" "http://www.w3.org/Graphics/SVG/1.1/DTD/svg11.dtd"><svg t="1710957230900" class="icon" viewBox="0 0 1024 1024" version="1.1" xmlns="http://www.w3.org/2000/svg" p-id="6025" width="300" height="300" xmlns:xlink="http://www.w3.org/1999/xlink"><path d="M853.248 128h-597.333333a85.333333 85.333333 0 0 0-85.333334 85.333333v682.666667a85.333333 85.333333 0 0 0 85.333334 85.333333h597.333333a85.333333 85.333333 0 0 0 85.333333-85.333333V213.333333a85.333333 85.333333 0 0 0-85.333333-85.333333z" fill="#B5B5B6" p-id="6026"></path><path d="M767.914667 42.666667h-597.333334a85.333333 85.333333 0 0 0-85.333333 85.333333v682.666667a85.333333 85.333333 0 0 0 85.333333 85.333333h597.333334a85.333333 85.333333 0 0 0 85.333333-85.333333V128a85.333333 85.333333 0 0 0-85.333333-85.333333z" fill="#EBEBEB" p-id="6027"></path><path d="M725.248 725.333333h-512a42.666667 42.666667 0 1 0 0 85.333334h512a42.666667 42.666667 0 0 0 0-85.333334zM725.248 554.666667h-512a42.666667 42.666667 0 1 0 0 85.333333h512a42.666667 42.666667 0 0 0 0-85.333333z" fill="#727272" p-id="6028"></path><path d="M725.248 128h-512a42.666667 42.666667 0 0 0-42.666667 42.666667v256a42.666667 42.666667 0 0 0 42.666667 42.666666h512a42.666667 42.666667 0 0 0 42.666667-42.666666V170.666667a42.666667 42.666667 0 0 0-42.666667-42.666667z" fill="#FFFFFF" p-id="6029"></path><path d="M469.248 298.666667a64 64 0 1 0 0-128 64 64 0 0 0 0 128z m0 0c71.978667 0 128 36.864 128 82.432V426.666667h-256v-41.216c0-47.744 55.978667-86.784 128-86.784z" fill="#727272" p-id="6030"></path></svg>